<?xml version="1.0" standalone="no"?>
<!DOCTYPE svg PUBLIC "-//W3C//DTD SVG 20010904//EN"
 "http://www.w3.org/TR/2001/REC-SVG-20010904/DTD/svg10.dtd">
<svg version="1.0" xmlns="http://www.w3.org/2000/svg"
 width="452.000000pt" height="452.000000pt" viewBox="0 0 452.000000 452.000000"
 preserveAspectRatio="xMidYMid meet">
<metadata>
Created by potrace 1.14, written by Peter Selinger 2001-2017
</metadata>
<g transform="translate(0.000000,452.000000) scale(0.100000,-0.100000)"
fill="#000000" stroke="none">
<path d="M555 4504 c-210 -41 -415 -213 -504 -422 -52 -125 -51 -79 -51 -1822
0 -1743 -1 -1697 51 -1822 91 -214 294 -382 512 -423 118 -22 3276 -22 3394 0
268 50 497 280 549 552 21 112 21 3274 0 3386 -52 272 -281 502 -549 552 -113
21 -3293 21 -3402 -1z m1023 -1179 c219 -44 414 -206 517 -429 58 -125 79
-228 79 -401 0 -133 -3 -161 -27 -250 -113 -410 -486 -786 -951 -959 -81 -31
-101 -35 -111 -24 -7 7 -65 78 -130 158 -65 80 -125 152 -133 162 -12 15 -4
21 86 67 250 129 472 314 543 453 46 90 33 188 -34 264 -22 25 -92 89 -156
143 -146 123 -221 204 -258 278 -25 52 -28 68 -28 158 0 87 3 107 27 157 88
188 312 275 576 223z m1621 -21 c185 -61 355 -218 442 -409 74 -164 100 -410
61 -595 -47 -228 -171 -441 -372 -640 -118 -116 -248 -210 -400 -288 -109 -56
-287 -129 -294 -121 -1 2 -66 81 -144 176 l-141 172 47 22 c260 125 522 336
595 480 49 97 31 204 -46 281 -19 19 -96 87 -171 152 -141 121 -200 188 -238
271 -32 71 -32 205 1 288 43 110 171 208 306 236 90 18 259 6 354 -25z"/>
</g>
</svg>
