<svg width="11" height="14" fill="#fff" xmlns="http://www.w3.org/2000/svg"><path fill-rule="evenodd" clip-rule="evenodd" d="M5.5 0C3.366 0 1.757 1.57 1.757 4.102V6.04c-.27.03-.48.084-.665.178a2 2 0 00-.874.874C0 7.52 0 8.08 0 9.2v1.6c0 1.12 0 1.68.218 2.108a2 2 0 00.874.874C1.52 14 2.08 14 3.2 14h4.6c1.12 0 1.68 0 2.108-.218a2 2 0 00.874-.874C11 12.48 11 11.92 11 10.8V9.2c0-1.12 0-1.68-.218-2.108a2 2 0 00-.874-.874 1.892 1.892 0 00-.663-.178V4.102C9.243 1.569 7.635 0 5.5 0zm2.486 6V4.102c0-1.812-1.023-2.735-2.486-2.735-1.463 0-2.486.923-2.486 2.735V6H7.986z" fill="#fff"></path></svg>