<svg width="16" height="16" viewBox="0 0 16 16" fill="none" xmlns="http://www.w3.org/2000/svg">
<path d="M15.2278 2.08632C15.5907 1.72343 15.5907 1.13506 15.2278 0.772171C14.8649 0.409278 14.2766 0.409278 13.9137 0.772171L8 6.68585L2.08632 0.77217C1.72343 0.409276 1.13506 0.409277 0.772171 0.77217C0.409278 1.13506 0.409277 1.72343 0.772171 2.08632L6.68585 8L0.77217 13.9137C0.409276 14.2766 0.409277 14.8649 0.77217 15.2278C1.13506 15.5907 1.72343 15.5907 2.08632 15.2278L8 9.31415L13.9137 15.2278C14.2766 15.5907 14.8649 15.5907 15.2278 15.2278C15.5907 14.8649 15.5907 14.2766 15.2278 13.9137L9.31415 8L15.2278 2.08632Z" fill="#888"></path>
</svg>