<svg xmlns:dc="http://purl.org/dc/elements/1.1/" xmlns:cc="http://creativecommons.org/ns#" xmlns:rdf="http://www.w3.org/1999/02/22-rdf-syntax-ns#" xmlns:svg="http://www.w3.org/2000/svg" xmlns="http://www.w3.org/2000/svg" viewBox="0 0 480 480" fill="none"><metadata><rdf:RDF><cc:Work><dc:format>image/svg+xml</dc:format><dc:type rdf:resource="http://purl.org/dc/dcmitype/StillImage"/><dc:title>Custom Avatar</dc:title><dc:creator><cc:Agent><dc:title>Ashley Seo</dc:title></cc:Agent></dc:creator><dc:source>https://www.figma.com/community/file/881358461963645496</dc:source><cc:license rdf:resource="https://creativecommons.org/licenses/by/4.0/"/></cc:Work><cc:License rdf:about="https://creativecommons.org/licenses/by/4.0/"><cc:permits rdf:resource="https://creativecommons.org/ns#Reproduction"/><cc:permits rdf:resource="https://creativecommons.org/ns#Distribution"/><cc:permits rdf:resource="https://creativecommons.org/ns#DerivativeWorks"/><cc:requires rdf:resource="https://creativecommons.org/ns#Notice"/><cc:requires rdf:resource="https://creativecommons.org/ns#Attribution"/></cc:License></rdf:RDF></metadata><mask id="avatarsRadiusMask"><rect width="480" height="480" rx="0" ry="0" x="0" y="0" fill="#fff"/></mask><g mask="url(#avatarsRadiusMask)"><g transform="matrix(.85775 0 0 .85427 52 47)"><path d="M263.989 38.62s131.387 20.593 121.424 208.128c-.036.695 15.192 10.822 16.384 11.904 10.619 9.62 19.527 21.94 23.423 36.351 13.872 51.319-35.724 104.196-75.83 118.231-14.981 5.242-30.815 7.787-46.681 8.249-103.139 3.009-239.69-62.655-246.703-190.893a172.056 172.056 0 0 1-.195-13.802c.621-24.349 6.488-48.063 15.33-70.082-.004.001 57.398-142.617 192.848-108.085Z" fill="rgba(245, 215, 177, 1)"/><path d="M388.739 248.727c-1.423 3.492-2.844 7.955-3.241 10.507-1.694 10.947 2.045 22.252 8.54 30.378 6.168 7.716 14.976 12.72 23.506 14.607 2.88.637 6.367.964 9.416 1.067-3.204-31.703-28.973-50.725-38.221-56.559ZM203.534 332.051c24.406-5.26 39.558-31.017 33.844-57.531-5.714-26.514-30.13-43.744-54.535-38.484-24.405 5.259-39.558 31.016-33.844 57.53 5.714 26.514 30.13 43.744 54.535 38.485Z" fill="#DC2400" style="mix-blend-mode:multiply" opacity=".1"/><path opacity=".1" d="M323.014 257.889s20.842-19.864 36.977-1.188Z" fill="#000"/><g><path d="M128.679 356.869c-69.38 34.83-132.35-52.512-112.18-101.609 12.866-31.317 50.38-33.752 72.118-5.146 12.829 16.883 23.209 38.464 29.103 59.108" fill="rgba(245, 215, 177, 1)"/><path opacity=".1" d="M71.534 278.927c8.927 9.099 16.103 22.593 24.923 30.12-1.63-12.595-4.232-26.045-10.34-37.396-6.201-11.528-17.479-21.025-28.962-20.242-14.23.971-25.947 17.573-27.454 32.626.9-9.008 18.99-15.104 25.894-14.251 10.812 20.413 14.998 60.644 14.998 60.644 9.007-22.775 5.36-40.689.941-51.501Z" fill="#000"/></g></g><g transform="matrix(.85472 0 0 .855 19 -17)"><path d="M385.305 380.359c9.354.259 18.323-2.416 26.048-10.444 4.042-4.197 8.141-6.507 13.94-2.917 13.885 8.598 17.154 30.077 13.422 44.479-4.098 15.803-16.442 28.544-30.667 36.853-38.279 22.36-67.64 17.328-106.811 3.035-30.833-11.248-72.517-33.921-61.951-72.943 13.085-48.315 69.477-25.118 101.296-12.084 13.51 5.539 29.618 13.602 44.723 14.021Z" fill="#fff"/><mask id="mouthTeethSmile-a" style="mask-type:alpha" maskUnits="userSpaceOnUse" x="237" y="349" width="204" height="115"><path d="M385.305 380.359c9.354.259 18.323-2.416 26.048-10.444 4.042-4.197 8.141-6.507 13.94-2.917 13.885 8.598 17.154 30.077 13.422 44.479-4.098 15.803-16.442 28.544-30.667 36.853-38.279 22.36-67.64 17.328-106.811 3.035-30.833-11.248-72.517-33.921-61.951-72.943 13.085-48.315 69.477-25.118 101.296-12.084 13.51 5.539 29.618 13.602 44.723 14.021Z" fill="#fff"/></mask><g mask="url(#mouthTeethSmile-a)"><path fill-rule="evenodd" clip-rule="evenodd" d="m257.597 434.025 40.072-101.131 5.579 2.211-40.073 101.131-5.578-2.211Zm82.34 32.677 27.679-106.117 5.805 1.514-27.678 106.117-5.806-1.514Zm82.38-25.622-15.273-77.8 5.888-1.155 15.272 77.799-5.887 1.156Z" fill="#D1D3D4"/></g></g><g transform="matrix(.85472 0 0 .855 19 -17)"><g fill="#2A1200"><path d="M300.349 309.163c8.832-.16 17.674 3.022 25.496 7.773 4.691-4.793 6.946-12.983 5.183-21.539-2.472-12.006-11.824-20.057-20.887-17.979-9.064 2.078-14.402 13.498-11.926 25.504.461 2.254 1.232 4.311 2.134 6.241ZM416.11 310.627c1.302-2.877 2.067-6.392 1.993-10.23-.18-9.539-5.289-17.234-11.411-17.182-6.124.049-10.941 7.825-10.761 17.367.1 5.247 1.723 9.88 4.15 13.029 5.111-1.982 10.539-2.928 16.029-2.984Z"/></g><g fill="#71472D"><path d="M333.495 238.676c-13.683-2.225-28.346 2.887-38.189 13.256-3.173 3.343-4.061 9.273-.745 13.048 3.063 3.493 8.636 4.561 12.033.978a38.106 38.106 0 0 1 3.208-3.036c.351-.294 1.325-.816 1.631-1.249.171-.113.338-.226.513-.335a37.653 37.653 0 0 1 3.311-1.858 38.634 38.634 0 0 1 1.966-.902c.209-.087.419-.171.632-.256.582-.101 1.249-.416 1.78-.561a35.606 35.606 0 0 1 6.314-1.117c.67.003 1.339-.01 2.012.017 1.429.06 2.851.219 4.268.447 4.421.72 9.007-3.632 9.138-8.413.139-5.262-3.135-9.247-7.872-10.019ZM425.358 254.39c-4.968-6.836-12.27-11.322-20.146-12.625-2.126-.351-4.607.464-6.265 1.882-1.634 1.397-3.005 3.86-3.148 6.158-.147 2.387.324 4.948 1.815 6.825 1.511 1.903 3.407 3.111 5.715 3.496.378.062.745.168 1.122.25 1.11.383 2.183.856 3.23 1.411a23.874 23.874 0 0 1 3.349 2.746c.34.407.7.797 1.016 1.23 1.362 1.871 3.546 3.204 5.715 3.496 2.076.279 4.66-.388 6.264-1.886 1.663-1.55 2.996-3.699 3.148-6.158.153-2.451-.374-4.844-1.815-6.825Z"/></g></g><g transform="matrix(.85472 0 0 .85667 18 -15)"><path d="M412.723 124.708c20.133-6.007 26.461 19.947 27.333 37.181.058 1.161.092 2.286.104 3.36.221 20.128-6.673 42.169-24.47 51.328-.226.118-4.084-4.079-6.399-6.598-.884-.962-1.543-1.679-1.689-1.818-7.367-6.987-15.384-13.185-23.811-18.572-26.269-16.795-55.864-24.44-86.257-22.549-36.206 2.254-75.793 11.839-103.068 36.737-26.832 24.494-43.372 66.485-42.479 106.709.024 1.052.119 2.723.236 4.784.564 9.919 1.644 28.896-2.223 31.73l-.604.302c-.42.32-1.127.863-2.381 1.848-3.084 2.259-6.571-3.874-11.292-12.175-5.659-9.953-13.091-23.022-23.723-28.475-8.667-4.833-30.6-9.1-49 10.5-2.07-9.402-3.027-16.062-3.47-21.608l-.048.108-.03-1.155a122.44 122.44 0 0 1-.28-6.923c-.018.162-.023.712-.023.712v-.129c-.002-.814 0-1.628.005-2.441-.005-1.019-.005-2.035-.005-3.064-.017-10.832.527-16.353 1.578-26.937l.058-.581c3.773-38.025 15.158-75.559 37.15-105.843 22.412-30.87 56.807-52.344 90.818-65.067a200.3 200.3 0 0 1 10.893-3.727c34.132-10.583 71.077-11.549 105.03-.308 23.276 7.703 44.637 20.907 64.545 36.233 1.34-1.796 2.926-3.442 4.845-4.788 8.319-5.827 21.036-2.091 25.698 7.318 1.682 3.392 3.025 6.828 3.948 10.274 2.379-3.001 5.48-5.314 9.011-6.366Z" fill="rgba(113, 71, 45, 1)"/><path d="M304.676 82.041c23.276 7.704 44.637 20.908 64.545 36.234 1.031-1.388 2.266-2.63 3.635-3.755-2.721 3.097-4.862 7.115-6.665 10.941-8.035-6.792-18.151-10.528-28.302-7.418-9.712 2.979-16.569 11.2-20.693 20.84-23.163-13.925-47.955-19.234-76.406-13.875-34.066 6.416-63.836 30.076-83.607 60.433-26.619 40.876-26.921 118.253-6.875 161.124-.484.458 0 0-3.293 2.585-6.782 4.969-15.515-30.65-35.015-40.65-8.667-4.833-30.6-9.1-49 10.5-3.851-17.5-3.851-25.5-3.851-34.5-.017-10.884.532-16.405 1.593-27.088l.043-.426c3.773-38.024 15.158-75.558 37.15-105.843 22.412-30.869 56.807-52.343 90.818-65.066a200.507 200.507 0 0 1 10.893-3.727c34.132-10.583 71.077-11.549 105.03-.309Z" fill="#000" fill-opacity=".05"/></g><g transform="matrix(.85472 0 0 .85667 14 -12)"><g fill-rule="evenodd" clip-rule="evenodd"><path d="M479.063 283.263 430 281.5l-.5-10.5 49.786 2.265-.223 9.998Z" fill="#896307"/><path d="M304.05 220.73c-27.207 4.285-46.105 32.158-41.248 62.992 4.857 30.834 31.407 51.548 58.615 47.263 27.207-4.286 46.104-32.159 41.248-62.993-4.857-30.834-31.407-51.548-58.615-47.262Zm-51.898 52.176c.519-30.648 20.899-57.417 50.342-62.055 33.349-5.252 64.361 20.086 69.954 55.6a.143.143 0 0 1 .004.022 35.38 35.38 0 0 1 3.349-1.162c3.639-1.058 8.223-1.707 12.994-.711.609-12.498 4.244-23.975 10.158-33.038 7.353-11.266 18.424-19.024 31.587-19.713 13.143-.687 25.152 5.841 33.968 16.205 8.819 10.367 14.697 24.806 15.814 40.845 1.117 16.037-2.712 31.017-10.059 42.274-7.352 11.266-18.423 19.024-31.586 19.713-13.143.688-25.152-5.841-33.968-16.204-8.594-10.102-14.395-24.071-15.719-39.617-3.429-1.403-7.065-1.122-10.42-.146-2.091.608-3.917 1.45-5.247 2.162.233 31.364-20.355 59.057-50.35 63.782-33.349 5.253-64.361-20.086-69.955-55.6a72.913 72.913 0 0 1-.305-2.147l-86.442-13.924c-16.216-2.243-32.403-1.499-44.357 2.514-11.991 4.026-18.319 18.835-18.509 28.032L93.5 299.5c.316-15.291 11.421-32.634 25.262-37.281 13.866-4.655 31.713-5.306 48.882-2.924l.054.007 84.454 13.604Zm155.08-35.828c-6.036 9.25-9.435 22.01-8.455 36.087.98 14.075 6.128 26.422 13.44 35.017 7.315 8.599 16.543 13.21 25.918 12.72 9.355-.49 17.82-6.004 23.85-15.245 6.036-9.249 9.435-22.01 8.455-36.087-.98-14.075-6.128-26.421-13.441-35.017-7.315-8.599-16.542-13.21-25.917-12.72-9.355.49-17.82 6.005-23.85 15.245Z" fill="#C5900F"/></g></g></g></svg>